<svg width="30" height="55" viewBox="0 0 30 55" fill="none" xmlns="http://www.w3.org/2000/svg">
<path d="M10.5347 43.7677V35.9711C10.5347 35.4409 10.8622 34.9887 11.3923 34.864L11.7198 34.8016C12.9049 34.6768 14.012 34.3494 15.1191 33.8816L15.7116 33.6009C16.4913 33.3982 17.2865 33.9284 17.2865 34.708V42.9724V43.986C17.3801 43.986 17.5049 43.986 17.5672 43.986C18.0194 43.986 18.4872 43.9236 18.8147 43.8612C19.2201 43.7988 19.532 43.7365 19.797 43.6741C20.1245 43.5805 20.6391 43.3934 20.6391 43.3934C21.715 42.9568 22.0425 42.4111 22.1984 41.99C22.2296 41.8965 22.2608 41.8185 22.2764 41.7561L24.818 23.4186C23.8357 23.824 22.6662 24.1359 21.4187 24.4009C19.5164 24.8687 17.3645 25.0559 14.932 25.0559C12.4994 25.0559 10.3476 24.8064 8.44522 24.4009C8.19573 24.3386 7.93064 24.2762 7.68115 24.2294L9.06894 43.2999C9.36522 43.4402 9.73945 43.5805 10.1293 43.6741C10.2696 43.7053 10.41 43.7677 10.5347 43.7677ZM17.692 27.1142C18.8771 27.1142 19.8438 28.0809 19.8438 29.266C19.8438 30.4511 18.8771 31.4179 17.692 31.4179C16.5069 31.4179 15.5401 30.4511 15.5401 29.266C15.5401 28.0809 16.5069 27.1142 17.692 27.1142Z" fill="#FEC89A"/>
<path d="M14.1212 42.2241L12.3124 43.9549C12.3592 43.9549 12.3748 43.9705 12.4059 43.9705C12.4215 43.9705 12.4527 43.9861 12.4683 43.9861C13.3259 44.1108 15.1191 44.1576 16.0547 44.0796V43.9549V43.2376V40.8674V40.3373L14.1212 42.2241Z" fill="white"/>
<path d="M6.52737 13.5172C6.85482 12.7219 8.10228 11.9422 9.98905 11.5524V12.145C9.98905 12.7375 10.9714 13.1897 12.1409 13.1897C12.5931 13.1897 12.9829 13.1273 13.3104 13.0026C14.0901 12.7219 14.3707 12.0982 14.3707 12.0202V10.9755C14.5578 10.9755 14.7761 10.9755 15.0256 10.9755C19.9375 10.9755 22.8222 11.8955 23.5395 13.5951L23.9917 16.4175C23.9293 16.7449 23.2744 17.3375 21.6995 17.8676C19.9219 18.4602 17.5829 18.7876 15.0256 18.7876C12.484 18.7876 10.1138 18.4602 8.35177 17.8676C6.77686 17.3375 6.13754 16.7605 6.05957 16.4175L6.52737 13.5172Z" fill="white"/>
<path d="M25.0053 22.2805C24.0853 22.7327 22.9782 23.1381 21.8087 23.45C19.7816 23.9022 17.5361 24.1049 15.0568 24.1049C12.6399 24.1049 10.4101 23.9178 8.44533 23.45C7.11991 23.1225 6.02839 22.7327 5.0928 22.2805C4.04805 21.7503 2.55111 20.2534 3.00331 18.8188C3.33077 17.8988 4.32873 17.4466 5.29551 17.1191C5.70093 17.7741 6.62093 18.3666 8.0555 18.8188C9.95787 19.4737 12.4528 19.8012 15.0568 19.8012C17.6609 19.8012 20.1558 19.4737 22.0582 18.8188C23.5083 18.3666 24.4127 17.7741 24.8182 17.1191C25.8005 17.4466 26.7829 17.9144 27.1103 18.8188C27.5626 20.2534 26.05 21.7659 25.0053 22.2805Z" fill="white"/>
<path d="M15.0099 16.2145C18.6743 16.2145 21.0913 15.5596 22.3543 14.1874L21.637 13.5325C20.9197 14.3277 19.2201 15.2321 15.0255 15.2321C11.6262 15.2321 9.19368 14.6396 8.41403 13.5948L7.61877 14.1874C8.64792 15.4816 11.2832 16.2145 15.0099 16.2145Z" fill="#2E2836"/>
<path d="M12.6866 5.75166C12.9828 5.56454 13.2947 5.4242 13.6221 5.29946C14.3082 5.04997 15.0255 4.89404 15.7428 4.81607C15.9299 4.80048 16.1171 4.76929 16.3198 4.7537C17.1618 4.66014 18.0194 4.55099 18.7055 4.0676C19.7035 3.36591 20.0777 2.02489 19.875 0.824219C19.0642 1.43235 18.113 1.85337 17.0994 2.05608C15.9143 2.27438 14.6201 2.19642 13.5598 2.80455C12.5306 3.39709 11.9069 4.64455 12.0784 5.81403C12.172 6.29742 12.4059 5.92319 12.6866 5.75166Z" fill="#2E2836"/>
<path d="M29.1529 21.2046C29.7143 20.0039 29.5895 18.4446 28.9346 17.3063C28.4824 16.5266 27.7963 15.9341 27.0011 15.5443C26.6736 15.3571 26.4085 15.2168 26.1434 15.1388L25.816 13.2521L25.7536 12.8778C25.1611 11.3029 23.8512 10.1958 21.7618 9.52529C20.0621 8.93275 17.8323 8.66767 15.0099 8.66767C14.7292 8.66767 14.5577 8.66767 14.2926 8.66767V7.95038C14.2926 7.35784 13.3103 6.90564 12.1408 6.90564C11.5482 6.90564 11.0337 7.03038 10.6438 7.2331C10.2384 7.42021 9.98892 7.6853 9.98892 8.02835V9.13546C9.39638 9.26021 8.81944 9.41614 8.28927 9.58766C6.13741 10.2894 4.74962 11.49 4.29742 12.9714L4.23504 13.2209L3.90759 15.1232C3.89199 15.17 3.48657 15.2948 3.43979 15.3259C3.25267 15.4195 3.08115 15.5131 2.89403 15.6066C1.91166 16.1836 1.10082 16.9632 0.710988 18.0703C0.00929514 20.1131 1.06963 22.2649 2.70691 23.5124L5.32657 42.0994C5.38894 42.5048 5.51368 42.957 5.73199 43.3469C6.13741 44.0642 6.8391 44.8438 8.08656 45.4364C8.61672 45.717 9.19367 45.8418 9.92655 46.0289C11.7665 46.5591 14.4486 46.8241 18.035 46.8241C24.3814 46.7618 28.2485 45.1869 28.2485 43.2377C28.2485 42.1306 27.3909 41.0859 24.8492 40.4777L27.2662 23.5903C28.0458 22.9198 28.7631 22.1869 29.1529 21.2046ZM6.49605 13.5171C6.82351 12.7219 8.07096 11.9422 9.95774 11.5524V12.1449C9.95774 12.7375 10.9401 13.1897 12.1096 13.1897C12.5618 13.1897 12.9516 13.1273 13.2791 13.0026C14.0587 12.7219 14.3394 12.0982 14.3394 12.0202V10.9755C14.5265 10.9755 14.7448 10.9755 14.9943 10.9755C19.9062 10.9755 22.7909 11.8955 23.5082 13.5951L23.9604 16.4175C23.898 16.7449 23.2431 17.3375 21.6682 17.8676C19.8906 18.4602 17.5516 18.7876 14.9943 18.7876C12.4371 18.7876 10.0825 18.4602 8.32045 17.8676C6.74554 17.3375 6.10622 16.7605 6.02826 16.4175L6.49605 13.5171ZM9.06893 43.3313C8.2269 42.957 7.74351 42.4269 7.66554 41.8031L5.07708 23.45C5.88792 23.7463 6.72995 24.0113 7.64995 24.2452C7.66554 24.2452 7.69673 24.2608 7.71232 24.2608C7.96181 24.3232 8.2269 24.3856 8.47639 24.4324C10.3788 24.8378 12.5306 25.0873 14.9631 25.0873C17.3801 25.0873 19.5475 24.9002 21.4499 24.4324C22.6974 24.1517 23.8668 23.8398 24.8492 23.45L22.3075 41.7876C22.2919 41.8499 22.2607 41.9279 22.2296 42.0215C22.0736 42.4269 21.7462 42.9882 20.6702 43.4248C20.6702 43.4248 20.1557 43.612 19.8282 43.7055C19.5475 43.7679 19.2357 43.8303 18.8458 43.8926C18.5184 43.955 18.0506 44.0174 17.5984 44.0174C17.536 44.0174 17.4113 44.0174 17.3177 44.0174V42.9882V34.7238C17.3177 33.9286 16.5225 33.3984 15.7428 33.6167L15.1503 33.8974C14.0431 34.3496 12.936 34.6927 11.751 34.8174L11.4235 34.8798C10.8933 35.0045 10.5659 35.4723 10.5659 35.9869V43.7835C10.4411 43.7835 10.2852 43.7211 10.1604 43.7211C9.72384 43.612 9.3652 43.4716 9.06893 43.3313ZM12.3123 43.955L14.1211 42.2242L16.0703 40.353V40.8831V43.2533V43.9706V44.0953C15.1503 44.1577 13.3415 44.1109 12.4838 44.0018C12.4682 44.0018 12.4371 43.9862 12.4215 43.9862C12.3747 43.9706 12.3435 43.955 12.3123 43.955ZM24.9584 22.2805C24.0384 22.7327 22.9313 23.1381 21.7618 23.45C19.7347 23.9022 17.4892 24.1049 15.0099 24.1049C12.593 24.1049 10.3632 23.9178 8.39842 23.45C7.073 23.1225 5.98148 22.7327 5.04589 22.2805C4.00115 21.7503 2.5042 20.2534 2.9564 18.8188C3.28386 17.8988 4.28182 17.4466 5.2486 17.1192C5.65402 17.7741 6.57402 18.3666 8.00859 18.8188C9.91096 19.4737 12.4059 19.8012 15.0099 19.8012C17.614 19.8012 20.1089 19.4737 22.0113 18.8188C23.4614 18.3666 24.3658 17.7741 24.7712 17.1192C25.7536 17.4466 26.736 17.9144 27.0634 18.8188C27.5156 20.2534 26.0187 21.7659 24.9584 22.2805Z" fill="#2E2836"/>
<path d="M17.7075 31.4336C18.896 31.4336 19.8594 30.4702 19.8594 29.2817C19.8594 28.0933 18.896 27.1299 17.7075 27.1299C16.5191 27.1299 15.5557 28.0933 15.5557 29.2817C15.5557 30.4702 16.5191 31.4336 17.7075 31.4336Z" fill="#2E2836"/>
<path d="M5.0614 23.4656L7.64987 41.8031C7.74343 42.4113 8.21122 42.9414 9.05325 43.3313H9.06885L7.68105 24.2608C7.66546 24.2608 7.63427 24.2452 7.61868 24.2452C6.71428 24.0113 5.87225 23.7618 5.0614 23.4656Z" fill="white"/>
</svg>
