<svg width="128" height="39" viewBox="0 0 128 39" fill="none" xmlns="http://www.w3.org/2000/svg">
<rect width="127.473" height="38.8793" rx="8" fill="white"/>
<path d="M30.8793 8H8V30.8793H30.8793V8Z" fill="#F15F22"/>
<path d="M14.8926 13.3579H16.6283L18.8588 18.0055C19.2318 18.8662 19.4326 19.318 19.4613 19.3682C19.4828 19.3252 19.6908 18.8662 20.0924 18.0055L22.366 13.3579H23.9798L20.1498 20.7883V25.522H18.6938V20.7022L14.8926 13.3579Z" fill="white"/>
<path d="M43.7088 13.5728C44.842 13.5833 45.8057 13.9011 46.6106 14.5365L45.8692 15.4578C45.2232 14.9601 44.5031 14.7165 43.6876 14.7165C42.3532 14.7271 41.4107 15.4155 40.8494 16.7711C40.5317 17.523 40.3622 18.5714 40.3622 19.927C40.3516 20.9966 40.4787 21.8333 40.7329 22.4475C41.04 23.1888 41.4742 23.7395 42.0143 24.1208C42.5544 24.4914 43.1581 24.6715 43.8147 24.6715C44.6196 24.6821 45.3609 24.4279 46.0599 23.909L46.8012 24.8621C45.8375 25.4869 44.7678 25.8047 43.6029 25.8152C42.3003 25.7941 41.1883 25.2751 40.2457 24.2373C39.3244 23.0406 38.869 21.5367 38.8796 19.7258C38.8902 17.9254 39.3456 16.4533 40.2563 15.3308C41.1459 14.1764 42.2897 13.5939 43.7088 13.5728Z" fill="#F15F22"/>
<path d="M48.0615 21.2399C48.1145 18.2852 49.3006 16.7813 51.6199 16.7178C52.3189 16.7284 52.9013 16.866 53.3673 17.1414C53.8333 17.4273 54.2145 17.7874 54.4899 18.2322C54.9982 18.9841 55.2524 20.0432 55.2524 21.4305C55.2418 22.8602 54.9135 23.951 54.2569 24.7135C53.6003 25.4654 52.7319 25.8361 51.6623 25.8361C49.29 25.7726 48.0827 24.2475 48.0615 21.2399ZM53.3885 18.9312C53.2085 18.5499 52.9543 18.264 52.626 18.0733C52.2977 17.9039 51.9588 17.8192 51.5987 17.8192C51.2175 17.8192 50.8892 17.9039 50.5926 18.0522C50.2749 18.2216 50.0419 18.444 49.8831 18.7511C49.6077 19.2595 49.47 20.0114 49.47 21.0069C49.47 22.2989 49.6501 23.2415 49.9996 23.8451C50.1584 24.0993 50.3914 24.3111 50.7091 24.4699C51.0057 24.6394 51.3445 24.7135 51.7046 24.7135C52.6048 24.6923 53.2085 24.2581 53.5156 23.4003C53.685 22.9237 53.7697 22.2989 53.7697 21.5258C53.7697 20.3503 53.6427 19.4819 53.3885 18.9312Z" fill="#F15F22"/>
<path d="M57.6037 18.9207C57.5931 18.2959 57.5507 17.8299 57.4766 17.5228L57.3071 17.0886L58.5886 16.7814C58.5886 16.792 58.6415 16.9191 58.7474 17.1733C58.8321 17.4274 58.8745 17.7134 58.8851 18.0417C59.1816 17.7028 59.5629 17.4063 60.0077 17.1521C60.4419 16.8979 60.8761 16.7708 61.3209 16.7603C61.7551 16.7603 62.1469 16.8767 62.507 17.1203C62.8459 17.3639 63.1001 17.7134 63.2589 18.19C64.1273 17.258 65.0275 16.7814 65.9383 16.7603C66.5737 16.7708 67.0821 16.9827 67.4633 17.3957C67.8446 17.8193 68.0352 18.3912 68.0352 19.0901V25.6032H66.7008V19.2172C66.7008 18.3806 66.3407 17.957 65.6206 17.957C65.2605 17.957 64.9004 18.0735 64.5615 18.3065C64.2121 18.5394 63.8202 18.8677 63.3966 19.3019V25.6032H62.0728V19.4714C62.0728 18.9631 61.9987 18.5924 61.8398 18.3594C61.6492 18.1264 61.3632 18.0099 60.9926 18.0099C60.3995 17.9993 59.69 18.3806 58.8639 19.1537V25.6032H57.6037V18.9207Z" fill="#F15F22"/>
<path d="M70.873 14.9705C70.82 13.8056 70.7459 13.2125 70.6506 13.2019L71.9638 12.9478C72.0167 12.9583 72.0909 13.6361 72.1862 14.9917V16.9933C72.1756 17.5863 72.165 17.9041 72.1544 17.9464C72.9275 17.1733 73.7218 16.7815 74.5373 16.7921C76.6553 16.845 77.7356 18.3065 77.7779 21.1765C77.7673 22.585 77.4708 23.7076 76.8883 24.5336C76.2847 25.3809 75.4798 25.8045 74.4631 25.8151C74.0183 25.8045 73.5841 25.688 73.1817 25.4762C72.7687 25.2644 72.4298 24.9996 72.1756 24.6819C72.165 25.0102 72.0909 25.3173 71.9426 25.6244H70.6294C70.7353 25.4126 70.7988 25.1479 70.8412 24.809C70.873 24.4807 70.8942 24.0359 70.8942 23.4746V14.9705H70.873ZM72.1544 23.5911C72.3768 23.8982 72.6733 24.1418 73.0546 24.3218C73.4359 24.5336 73.8277 24.6395 74.2195 24.6395C74.5055 24.6395 74.7914 24.5654 75.0668 24.4171C75.3421 24.2901 75.5645 24.11 75.7234 23.877C75.8822 23.6335 76.0199 23.2946 76.1364 22.8498C76.2529 22.3944 76.3059 21.8119 76.3059 21.1024C76.3059 20.001 76.147 19.2173 75.8187 18.7725C75.4586 18.2853 74.9397 18.0417 74.2513 18.0206C73.8489 18.0311 73.457 18.137 73.0758 18.3383C72.7051 18.5501 72.4086 18.8148 72.1544 19.1537V23.5911Z" fill="#F15F22"/>
<path d="M79.6211 14.3351C79.6211 14.028 79.727 13.7738 79.9282 13.5726C80.1188 13.3714 80.3624 13.2761 80.6484 13.2549C80.9449 13.2549 81.1991 13.3502 81.3897 13.5514C81.5803 13.7526 81.6756 14.0068 81.6756 14.3139C81.6756 14.6105 81.5803 14.8646 81.3897 15.0552C81.1991 15.2671 80.9555 15.373 80.6484 15.373C80.3624 15.373 80.1188 15.2671 79.9282 15.0552C79.727 14.8646 79.6211 14.621 79.6211 14.3351ZM79.9494 17.0145L81.305 16.7921V25.6033H79.9494V17.0145Z" fill="#F15F22"/>
<path d="M83.931 18.9526C83.9204 18.3278 83.8674 17.8724 83.7827 17.5653L83.6133 17.1311L84.8841 16.771C84.8841 16.7816 84.9371 16.9087 85.043 17.1628C85.1277 17.417 85.1701 17.7241 85.1807 18.1054C86.0491 17.2264 86.9175 16.7816 87.8071 16.7816C88.7814 16.8028 89.4592 17.2264 89.851 18.0418C89.9887 18.349 90.0522 18.6879 90.0522 19.0479V25.5928H88.7284V19.7575C88.7284 19.3021 88.7073 18.9844 88.6755 18.7832C88.6225 18.582 88.5378 18.4337 88.4213 18.3172C88.2201 18.0842 87.913 17.9677 87.5 17.9571C87.1611 17.9677 86.7692 18.0842 86.335 18.3066C85.9008 18.5396 85.5196 18.8255 85.2018 19.175V25.6034H83.931V18.9526Z" fill="#F15F22"/>
<path d="M92.4458 17.9146C93.5684 17.1521 94.7333 16.7603 95.9512 16.7603C97.1268 16.7708 97.8998 17.2156 98.2705 18.1052C98.44 18.5818 98.4929 19.2172 98.4505 20.0115L98.387 22.8391C98.3658 23.5063 98.3976 23.9935 98.4823 24.2794C98.5776 24.576 98.7683 24.7984 99.0542 24.9572L98.387 25.9315C97.7939 25.7091 97.4127 25.2961 97.2432 24.6713C96.5125 25.455 95.7076 25.8362 94.8286 25.8256C93.8225 25.8044 93.1236 25.5291 92.7317 25.0102C92.5305 24.756 92.3823 24.4912 92.2975 24.2159C92.1916 23.9299 92.1387 23.644 92.1387 23.3687C92.1704 21.3353 93.6531 20.308 96.576 20.2657C96.9573 20.2763 97.1585 20.2869 97.1691 20.2869V19.6832C97.1691 19.3019 97.1585 19.0054 97.1373 18.8042C97.0844 18.603 97.0103 18.4441 96.9044 18.317C96.6608 18.0099 96.2795 17.8511 95.7818 17.8511C95.2946 17.8617 94.8074 17.9676 94.2991 18.1582C93.7908 18.3594 93.3989 18.5924 93.113 18.8783L92.4458 17.9146ZM97.1373 21.2294C96.9255 21.2082 96.7031 21.1976 96.4807 21.1976C95.4323 21.1976 94.691 21.3671 94.2568 21.7166C93.812 22.0872 93.5896 22.6061 93.6001 23.2628C93.6001 24.3218 94.0873 24.8513 95.051 24.8513C95.9618 24.8301 96.6396 24.3747 97.0844 23.4957L97.1373 21.2294Z" fill="#F15F22"/>
<path d="M104.752 16.9822L104.349 17.9989H102.602V23.5695C102.602 24.0354 102.676 24.3637 102.835 24.565C102.994 24.7662 103.28 24.8615 103.672 24.8615C104.021 24.8615 104.297 24.7979 104.487 24.6815L104.678 25.5499C104.275 25.7829 103.788 25.8888 103.206 25.8888C102.782 25.8888 102.422 25.804 102.115 25.6452C101.564 25.3592 101.299 24.7874 101.31 23.9295V18.0095H100.219V16.9822H101.321C101.363 15.6902 101.405 14.9595 101.458 14.8006L102.824 14.4829C102.824 14.4935 102.803 14.7689 102.761 15.2984C102.687 15.8173 102.655 16.3786 102.655 16.9717H104.752V16.9822Z" fill="#F15F22"/>
<path d="M105.832 21.2399C105.885 18.2852 107.071 16.7813 109.39 16.7178C110.089 16.7284 110.672 16.866 111.138 17.1414C111.604 17.4273 111.985 17.7874 112.26 18.2322C112.769 18.9841 113.023 20.0432 113.023 21.4305C113.012 22.8602 112.684 23.951 112.027 24.7135C111.371 25.4654 110.502 25.8361 109.433 25.8361C107.061 25.7726 105.853 24.2475 105.832 21.2399ZM111.159 18.9312C110.979 18.5499 110.725 18.264 110.396 18.0733C110.068 17.9039 109.729 17.8192 109.369 17.8192C108.988 17.8192 108.66 17.9039 108.363 18.0522C108.045 18.2216 107.812 18.444 107.654 18.7511C107.378 19.2595 107.241 20.0114 107.241 21.0069C107.241 22.2989 107.421 23.2415 107.77 23.8451C107.929 24.0993 108.162 24.3111 108.48 24.4699C108.776 24.6394 109.115 24.7135 109.475 24.7135C110.375 24.6923 110.979 24.2581 111.286 23.4003C111.456 22.9237 111.54 22.2989 111.54 21.5258C111.551 20.3503 111.413 19.4819 111.159 18.9312Z" fill="#F15F22"/>
<path d="M115.385 18.9629C115.374 18.3169 115.332 17.8509 115.257 17.5544C115.162 17.2685 115.109 17.1202 115.099 17.1202L116.412 16.7601C116.412 16.7707 116.465 16.9084 116.571 17.1732C116.666 17.4485 116.698 17.7768 116.677 18.1581C117.333 17.2261 118.117 16.7495 119.017 16.7178C119.303 16.7495 119.451 16.7813 119.472 16.8131L118.932 18.2852C118.837 18.2428 118.71 18.2216 118.562 18.2216C118.043 18.2322 117.577 18.4334 117.174 18.8359C116.994 19.0159 116.867 19.1959 116.804 19.3971C116.73 19.5984 116.687 19.8631 116.687 20.2126V25.6137H115.374V18.9629H115.385Z" fill="#F15F22"/>
</svg>
